/home/minht/3dpredictsim_tutorial/predsim_tutorial/Results/Case_13/GRF.mot
version=1
nRows=15
nColumns=19
inDegrees=yes
endheader 
time	r_ground_force_vx	r_ground_force_vy	r_ground_force_vz	r_ground_force_px	r_ground_force_py	r_ground_force_pz	l_ground_force_vx	l_ground_force_vy	l_ground_force_vz	l_ground_force_px	l_ground_force_py	l_ground_force_pz	r_ground_torque_x	r_ground_torque_y	r_ground_torque_z	l_ground_torque_x	l_ground_torque_y	l_ground_torque_z	
          0.00000000	        -61.43527920	         47.62836403	        -20.87109423	         -4.75116376	          0.00000000	          1.32811559	        111.85582317	        860.53041170	        -17.56746088	          0.00803099	          0.00000000	         -0.00545233	          0.00000000	        189.25281685	          0.00000000	          0.00000000	          9.54954227	          0.00000000	
          0.01534827	        -88.39667408	         86.09454800	        -42.84498036	         -2.46507609	          0.00000000	          0.72762041	        109.92490705	        830.53053134	        -15.32109123	          0.01640532	          0.00000000	         -0.00973518	          0.00000000	        180.13416322	          0.00000000	          0.00000000	         15.90261485	          0.00000000	
          0.03069654	        -75.79739399	        155.78656902	        -71.26666620	         -1.24088553	          0.00000000	          0.39029961	        102.75935208	        783.58262764	        -10.69518598	          0.03350972	          0.00000000	         -0.01803790	          0.00000000	        129.64226374	          0.00000000	          0.00000000	         20.45540626	          0.00000000	
          0.04604481	        -42.05158648	        297.74302557	        -32.24769304	         -0.56901131	          0.00000000	          0.19306915	         94.57207578	        717.29155240	         -6.01237295	          0.07528181	          0.00000000	         -0.03594057	          0.00000000	         38.21282641	          0.00000000	          0.00000000	         12.17523724	          0.00000000	
          0.06139309	        -94.25928445	        553.48227331	        -21.65827583	         -0.25579093	          0.00000000	          0.09529129	         84.75167581	        634.92002461	         -1.59338613	          0.17987136	          0.00000000	         -0.07150098	          0.00000000	         25.76265414	          0.00000000	          0.00000000	         15.05808347	          0.00000000	
          0.07674136	       -130.77644881	        769.88203059	        -18.83359689	         -0.14540405	          0.00000000	          0.06059332	         63.62443147	        541.47847082	          6.32707902	          0.30636213	          0.00000000	         -0.11548634	          0.00000000	         21.16956362	          0.00000000	          0.00000000	         18.17722256	          0.00000000	
          0.09208963	       -139.00027989	        858.20464604	        -16.03312749	         -0.10535186	          0.00000000	          0.04746338	         46.96258365	        464.60755384	         15.77732636	          0.40426153	          0.00000000	         -0.14991932	          0.00000000	         18.88813789	          0.00000000	          0.00000000	         21.63040794	          0.00000000	
          0.10743790	       -134.61414877	        866.26749903	        -13.63355817	         -0.08241073	          0.00000000	          0.04021569	         32.67744672	        389.74916938	         20.86531085	          0.49081390	          0.00000000	         -0.18011220	          0.00000000	         16.20160119	          0.00000000	          0.00000000	         24.28865918	          0.00000000	
          0.12278617	       -125.81575522	        853.75403672	        -11.43015092	         -0.06594383	          0.00000000	          0.03473010	         21.59017175	        324.35683478	         24.15467118	          0.58528606	          0.00000000	         -0.21289649	          0.00000000	         13.83365097	          0.00000000	          0.00000000	         26.92044979	          0.00000000	
          0.13813444	       -114.43806896	        841.45985211	         -8.63825361	         -0.05152707	          0.00000000	          0.02973625	         11.94251083	        265.91410791	         25.69308370	          0.70750268	          0.00000000	         -0.25561262	          0.00000000	         11.17477763	          0.00000000	          0.00000000	         29.02163772	          0.00000000	
          0.15348272	       -103.88282221	        832.03228554	         -6.07441492	         -0.04024710	          0.00000000	          0.02551888	          5.04308323	        219.18550616	         26.53138808	          0.85286884	          0.00000000	         -0.30642841	          0.00000000	          8.91947294	          0.00000000	          0.00000000	         31.46274263	          0.00000000	
          0.16883099	        -94.27877997	        824.19665650	         -4.03092985	         -0.03297684	          0.00000000	          0.02233873	          1.62991428	        186.90667132	         27.88393833	          0.99516670	          0.00000000	         -0.35600567	          0.00000000	          7.54691682	          0.00000000	          0.00000000	         35.06426889	          0.00000000	
          0.18417926	        -85.57137729	        816.11367177	         -2.13492824	         -0.02889727	          0.00000000	          0.01989434	          0.19672182	        166.21150072	         30.74197769	          1.11291523	          0.00000000	         -0.39668515	          0.00000000	          7.03745400	          0.00000000	          0.00000000	         40.43985329	          0.00000000	
          0.19952753	        -77.87539380	        807.42209948	         -0.20688317	         -0.02586850	          0.00000000	          0.01777570	         -0.54821799	        149.72676870	         34.15756904	          1.22764489	          0.00000000	         -0.43618710	          0.00000000	          6.83619795	          0.00000000	          0.00000000	         47.25099976	          0.00000000	
          0.21487580	        -71.39104632	        799.45230927	          1.96647553	         -0.02320698	          0.00000000	          0.01588281	         -1.38152434	        135.15854458	         36.98769845	          1.35258934	          0.00000000	         -0.47919482	          0.00000000	          6.60340181	          0.00000000	          0.00000000	         54.29932995	          0.00000000	
